# File created by Blade
# Date/Time:  Fri Jan 16 19:32:17 2015
# Frame Rate: 120.000 fps
#------------------------------------------------------
:FULLY-SPECIFIED
:DEGREES
568
root 19.723889 35.431328 -19.772520 10.819532 14.932102 0.523195
Spine -22.784389 -9.042778 -3.888704
Head 17.429665 -6.574981 4.791215
LeftShoulder -4.986826 5.267784 -1.458376
LeftArm -96.290069 47.561041 -174.649623
LeftForeArm 52.050388 -0.000000 125.564988
LeftHand 10.171046 -0.000000 -19.399183
LeftHandThumb1 -26.253704 0.000000 33.147579
RightShoulder -14.749361 16.012339 -34.440813
RightArm -234.502742 74.179884 -252.104719
RightForeArm 7.321336 -0.000000 94.916843
RightHand -2.657288 -0.000000 -25.666690
RightHandThumb1 -24.326973 -0.000000 -32.862282
LeftUpLeg -1.555071 -1.888171 1.467861
LeftLeg -7.278262 -0.000000 0.000000
LeftFoot -19.432185 25.668367 -13.163625
LeftToeBase 25.921884 -0.000000 -0.000000
RightUpLeg 1.888776 -18.601584 -0.951947
RightLeg -4.610468 -0.000000 0.000000
RightFoot -24.373623 -25.975347 21.823553
RightToeBase 23.307231 -0.000000 -0.000000
569
root 19.726750 35.430737 -19.770598 10.770792 14.946044 0.518806
Spine -22.729572 -9.151037 -3.824120
Head 17.433320 -6.468440 4.880749
LeftShoulder -5.028021 5.416564 -1.343072
LeftArm -96.393506 47.623941 -174.530664
LeftForeArm 52.437429 -0.000000 125.339859
LeftHand 10.297904 -0.000000 -19.445497
LeftHandThumb1 -26.253704 0.000000 33.147579
RightShoulder -14.675468 15.949960 -34.373881
RightArm -235.385911 74.401937 -252.884270
RightForeArm 6.782552 -0.000000 93.174407
RightHand -2.686883 -0.000000 -25.246531
RightHandThumb1 -24.326973 -0.000000 -32.862282
LeftUpLeg -1.514886 -1.894872 1.470055
LeftLeg -7.258704 -0.000000 0.000000
LeftFoot -19.447599 25.655248 -13.146502
LeftToeBase 25.919855 -0.000000 -0.000000
RightUpLeg 1.943665 -18.606820 -0.965793
RightLeg -4.607910 -0.000000 0.000000
RightFoot -24.381754 -25.986256 21.830863
RightToeBase 23.329819 -0.000000 -0.000000
570
root 19.729725 35.430841 -19.769086 10.742045 14.922738 0.522465
Spine -22.704502 -9.215200 -3.778277
Head 17.430898 -6.356423 4.963487
LeftShoulder -5.021013 5.558257 -1.186147
LeftArm -96.471219 47.679545 -174.461042
LeftForeArm 52.973058 -0.000000 125.061276
LeftHand 10.580717 -0.000000 -19.297929
LeftHandThumb1 -26.253704 0.000000 33.147579
RightShoulder -14.601810 15.887104 -34.300470
RightArm -236.284543 74.617095 -253.677563
RightForeArm 6.138098 0.000000 91.457892
RightHand -2.347433 -0.000000 -24.513078
RightHandThumb1 -24.326973 -0.000000 -32.862282
LeftUpLeg -1.484258 -1.875369 1.458751
LeftLeg -7.249871 -0.000000 0.000000
LeftFoot -19.449479 25.655777 -13.137050
LeftToeBase 25.916630 -0.000000 -0.000000
RightUpLeg 1.973120 -18.592976 -0.985125
RightLeg -4.606145 -0.000000 0.000000
RightFoot -24.382377 -25.988753 21.834279
RightToeBase 23.308863 -0.000000 -0.000000
571
root 19.733054 35.431022 -19.766958 10.706511 14.871595 0.522048
Spine -22.686905 -9.272781 -3.718873
Head 17.441001 -6.211147 5.026813
LeftShoulder -5.026426 5.642917 -1.093925
LeftArm -96.541571 47.640070 -174.334665
LeftForeArm 53.383965 -0.000000 124.809306
LeftHand 10.784596 0.000000 -19.186632
LeftHandThumb1 -26.253704 0.000000 33.147579
RightShoulder -14.488065 15.809178 -34.194395
RightArm -236.750521 74.748886 -254.074448
RightForeArm 5.532919 -0.000000 89.784556
RightHand -2.310213 -0.000000 -23.627965
RightHandThumb1 -24.326973 -0.000000 -32.862282
LeftUpLeg -1.443093 -1.858082 1.445915
LeftLeg -7.236065 -0.000000 0.000000
LeftFoot -19.469665 25.676883 -13.149758
LeftToeBase 25.909091 -0.000000 -0.000000
RightUpLeg 2.000429 -18.567014 -1.006303
RightLeg -4.596020 -0.000000 0.000000
RightFoot -24.374166 -25.987304 21.826776
RightToeBase 23.298539 -0.000000 -0.000000
